<svg xmlns="http://www.w3.org/2000/svg" width="25.664" height="38.042" viewBox="0 0 25.664 38.042">
  <g id="Group_473" data-name="Group 473" transform="translate(-2786.99 -11561)">
    <g id="Group_52" data-name="Group 52" transform="translate(2786.99 11578)">
      <path id="Path_79" data-name="Path 79" d="M193.558,258.591a1.935,1.935,0,0,0,1.735,1.637c.834.012,1.667,0,2.5,0h7.361c.064,0,.128,0,.192,0a.534.534,0,0,1,.007,1.065,1.7,1.7,0,0,1-.176,0c-3.207,0-6.415-.014-9.621.007a2.856,2.856,0,0,1-2.725-1.654,5.19,5.19,0,0,1-.392-.979c-.623-2.144-1.229-4.292-1.849-6.437-.436-1.509-.885-3.013-1.329-4.519a1.306,1.306,0,0,0-1.226-.867c-.775,0-1.55,0-2.325,0a.932.932,0,0,1-.254-.025.531.531,0,0,1,.166-1.039c.85,0,1.7-.006,2.55,0a6.39,6.39,0,0,1,.862.059,1.439,1.439,0,0,1,1.286,1.14c.95,3.461,1.918,6.917,2.876,10.376a.187.187,0,0,0,.22.163q5.773-.005,11.546,0c.788,0,.849-.017,1.218-.718.314-.595.588-1.21.864-1.824q1.222-2.719,2.427-5.445a2.806,2.806,0,0,0,.19-.74c.041-.3-.045-.376-.344-.381-.347-.005-.7,0-1.043,0l-15.25,0c-.032,0-.064,0-.1,0a.533.533,0,0,1-.54-.522.521.521,0,0,1,.528-.547c.32-.011.641,0,.962,0q7.641,0,15.282,0a2.685,2.685,0,0,1,.463.031,1.319,1.319,0,0,1,1.1,1.589,4.031,4.031,0,0,1-.336,1.149c-.978,2.172-1.949,4.348-2.931,6.519-.165.364-.366.712-.557,1.064a1.689,1.689,0,0,1-1.5.889c-.16.009-.32.01-.481.01H193.558Z" transform="translate(-185.079 -245.784)" fill="#fff"/>
      <path id="Path_80" data-name="Path 80" d="M205.84,292.9a2.5,2.5,0,1,1,2.5,2.495A2.5,2.5,0,0,1,205.84,292.9Zm3.964-.013a1.469,1.469,0,1,0-1.441,1.482A1.472,1.472,0,0,0,209.8,292.891Z" transform="translate(-198.374 -274.357)" fill="#fff"/>
      <path id="Path_81" data-name="Path 81" d="M239.1,292.9a2.5,2.5,0,1,1-2.494-2.5A2.495,2.495,0,0,1,239.1,292.9Zm-3.965,0a1.468,1.468,0,1,0,1.468-1.472A1.47,1.47,0,0,0,235.136,292.9Z" transform="translate(-216.477 -274.357)" fill="#fff"/>
    </g>
    <text id="_" data-name="+" transform="translate(2797 11578)" fill="#fff" font-size="16" font-family="OpenSans-Semibold, Open Sans" font-weight="600" letter-spacing="0.05em"><tspan x="0" y="0">+</tspan></text>
  </g>
</svg>
