<svg xmlns="http://www.w3.org/2000/svg" width="23.602" height="23.543" viewBox="0 0 23.602 23.543">
  <g id="Group_457" data-name="Group 457" transform="translate(-1345.759 -374.165)">
    <path id="Path_151" data-name="Path 151" d="M1369.36,385.948a11.8,11.8,0,1,1-11.858-11.782A11.754,11.754,0,0,1,1369.36,385.948Zm-22.9.394a1.346,1.346,0,0,0-.011.18q.042.421.09.841a10.791,10.791,0,0,0,1.394,4.157.315.315,0,0,0,.319.191c1.35-.019,2.7-.027,4.051-.039h.277a22.9,22.9,0,0,1-.728-5.331Zm6.045-6.062a.246.246,0,0,0-.045-.016c-1.447.01-2.893.019-4.339.038a.312.312,0,0,0-.211.149c-.156.272-.3.55-.437.834a11.114,11.114,0,0,0-.968,3.441c-.037.3-.042.605-.061.906h5.4A23.351,23.351,0,0,1,1352.5,380.28Zm10.166,11.327a.112.112,0,0,0,.041.007c1.414-.012,2.828-.022,4.242-.043a.317.317,0,0,0,.227-.158c.294-.625.61-1.242.848-1.889a10.2,10.2,0,0,0,.59-3.286h-5.3c-.072.914-.113,1.809-.221,2.7S1362.815,390.715,1362.669,391.607Zm5.95-6.079c-.029-.312-.05-.576-.078-.839a10.855,10.855,0,0,0-1.446-4.357.3.3,0,0,0-.31-.166c-1.018.015-2.036.024-3.054.032-.385,0-.771,0-1.183,0a22.935,22.935,0,0,1,.729,5.33Zm-16.079.776a21.014,21.014,0,0,0,.762,5.336h3.927V386.3Zm5.36-6.07v5.321h4.686a20.885,20.885,0,0,0-.761-5.321Zm-4.661.021a20.947,20.947,0,0,0-.7,5.341h4.653v-5.341Zm9.354,6.02h-4.656v5.343h3.947A21.006,21.006,0,0,0,1362.594,386.276Zm-7.208,10.569c-.295-.324-.558-.586-.788-.873a10.59,10.59,0,0,1-1.743-3.407.262.262,0,0,0-.3-.219c-1.285.021-2.57.028-3.856.04-.051,0-.1.012-.2.023A11.221,11.221,0,0,0,1355.386,396.845Zm-2.758-17.255c.357-.828.671-1.623,1.04-2.391a7.268,7.268,0,0,1,1.517-2.072,11.048,11.048,0,0,0-6.741,4.463Zm7.316,17.16c1.755.034,6.171-2.935,6.642-4.462h-4.135C1361.119,395.731,1360.972,395.517,1359.945,396.75Zm-.135-21.656c.266.3.51.543.726.813a10.712,10.712,0,0,1,1.741,3.408c.048.148.1.218.281.215,1.26-.022,2.521-.028,3.782-.041a1.677,1.677,0,0,0,.188-.027A11.2,11.2,0,0,0,1359.81,375.094Zm-2.652-.2a2.5,2.5,0,0,0-1.176.508,6.291,6.291,0,0,0-1.854,2.446c-.261.551-.472,1.125-.707,1.693h3.737Zm.812,22.063a.975.975,0,0,0,.134,0c.047-.009.093-.023.14-.036a2.963,2.963,0,0,0,1.167-.667,6.714,6.714,0,0,0,1.6-2.256c.253-.545.464-1.11.7-1.671h-3.735Zm3.637-17.431a10.612,10.612,0,0,0-1.615-3.184,4.043,4.043,0,0,0-1.377-1.2c-.232-.114-.485-.185-.749-.283v4.667Zm-8.086,12.816a11.112,11.112,0,0,0,1.412,2.912,4.752,4.752,0,0,0,1.389,1.366,2.114,2.114,0,0,0,.94.345v-4.624Z" fill="#fff"/>
  </g>
</svg>
