<svg xmlns="http://www.w3.org/2000/svg" width="36.59" height="30" viewBox="0 0 36.59 30">
  <g id="Group_44" data-name="Group 44" transform="translate(-185.079 -245.784)">
    <path id="Path_79" data-name="Path 79" d="M197.168,264.043a2.759,2.759,0,0,0,2.474,2.333c1.188.017,2.377.006,3.566.006H213.7c.091,0,.183,0,.274,0a.761.761,0,0,1,.01,1.519,2.411,2.411,0,0,1-.251,0c-4.573,0-9.145-.021-13.718.01a4.073,4.073,0,0,1-3.886-2.358,7.4,7.4,0,0,1-.559-1.4c-.889-3.056-1.752-6.119-2.636-9.177-.622-2.151-1.262-4.3-1.895-6.444a1.862,1.862,0,0,0-1.748-1.237c-1.1,0-2.21,0-3.315,0a1.329,1.329,0,0,1-.361-.036.757.757,0,0,1,.236-1.482c1.212,0,2.423-.008,3.635,0a9.113,9.113,0,0,1,1.229.084,2.052,2.052,0,0,1,1.833,1.625c1.355,4.934,2.735,9.862,4.1,14.793a.267.267,0,0,0,.314.232q8.231-.008,16.462,0c1.124,0,1.21-.024,1.736-1.024.447-.848.839-1.726,1.233-2.6q1.743-3.876,3.46-7.763a4,4,0,0,0,.271-1.055c.058-.422-.065-.537-.491-.543-.5-.007-.991,0-1.486,0l-21.742,0c-.046,0-.092,0-.137,0a.76.76,0,0,1-.771-.744.743.743,0,0,1,.752-.78c.457-.015.914-.005,1.371-.005q10.894,0,21.788,0a3.834,3.834,0,0,1,.66.044,1.88,1.88,0,0,1,1.574,2.266,5.746,5.746,0,0,1-.479,1.638c-1.4,3.1-2.779,6.2-4.178,9.295-.235.519-.522,1.015-.794,1.517a2.408,2.408,0,0,1-2.136,1.267c-.228.013-.457.015-.685.015H197.168Z"/>
    <path id="Path_80" data-name="Path 80" d="M205.84,293.969a3.562,3.562,0,1,1,3.564,3.557A3.561,3.561,0,0,1,205.84,293.969Zm5.651-.019a2.094,2.094,0,1,0-2.054,2.112A2.1,2.1,0,0,0,211.491,293.95Z" transform="translate(-10.117 -21.742)"/>
    <path id="Path_81" data-name="Path 81" d="M241.227,293.969a3.56,3.56,0,1,1-3.556-3.568A3.557,3.557,0,0,1,241.227,293.969Zm-5.652,0a2.093,2.093,0,1,0,2.092-2.1A2.1,2.1,0,0,0,235.574,293.967Z" transform="translate(-23.892 -21.742)"/>
  </g>
</svg>
