<svg xmlns="http://www.w3.org/2000/svg" width="19.425" height="21.268" viewBox="0 0 19.425 21.268">
  <g id="Group_177" data-name="Group 177" transform="translate(0.5 0.5)">
    <path id="Path_97" data-name="Path 97" d="M11.606,11.134h0A4.607,4.607,0,0,1,7,6.528V5.606A4.607,4.607,0,0,1,11.606,1h0a4.607,4.607,0,0,1,4.606,4.606v.921A4.607,4.607,0,0,1,11.606,11.134Z" transform="translate(-2.394 -1)" fill="none" stroke="#fff" stroke-linecap="square" stroke-miterlimit="10" stroke-width="1"/>
    <path id="Path_98" data-name="Path 98" d="M20.425,20.522a3.676,3.676,0,0,0-2.7-3.552A25.558,25.558,0,0,0,11.213,16a25.558,25.558,0,0,0-6.51.969A3.676,3.676,0,0,0,2,20.522v1.927H20.425Z" transform="translate(-2 -2.181)" fill="none" stroke="#fff" stroke-linecap="square" stroke-miterlimit="10" stroke-width="1"/>
  </g>
</svg>
